# xmcd CD database file
#
# Track frame offsets:
#	150
#	17212
#	38339
#	53914
#	73822
#	98101
#	118413
#	135148
#	152221
#	173348
#	189383
#	211405
#	231679
#
# Disc length: 3326 seconds
#
# Revision: 1
# Processed by: cddbd v1.5.2PL0 Copyright (c) Steve Scherf et al.
# Submitted via: CDex 1.70beta2
#
DISCID=af0cfc0d
DTITLE=C and a - v
DYEAR=2008
DGENRE=Country
TTITLE0=C/a - c
TTITLE1=C/a/gg - b
TTITLE2=C/a/gg/t - a
TTITLE3=C/a/gg/t - e
TTITLE4=C/a/gg/t - f
TTITLE5=C/a/gg/t - g
TTITLE6=C/a/gg/t - h
TTITLE7=C/a/gg/t - j
TTITLE8=C/a/gg/t - k
TTITLE9=C/a/gg/t - l
TTITLE10=C/a/gg/t - m
TTITLE11=C/a/gg/t - n
TTITLE12=C/a/gg/t - o
EXTD=YEAR: 2008
EXTT0=Live
EXTT1=Live
EXTT2=Live
EXTT3=Live
EXTT4=Live
EXTT5=Live
EXTT6=Live
EXTT7=Live
EXTT8=Live
EXTT9=Live
EXTT10=Live
EXTT11=Live
EXTT12=Live
PLAYORDER=
